<svg xmlns="http://www.w3.org/2000/svg" xmlns:xlink="http://www.w3.org/1999/xlink" width="90" height="90" viewBox="0 0 90 90">
  <defs>
    <clipPath id="clip-path">
      <rect id="Rectangle_3183" data-name="Rectangle 3183" width="90" height="90" transform="translate(1513 862)" fill="#8d8d8d" stroke="#707070" stroke-width="1"/>
    </clipPath>
  </defs>
  <g id="Mask_Group_150" data-name="Mask Group 150" transform="translate(-1513 -862)" clip-path="url(#clip-path)">
    <g id="destination" transform="translate(1515.293 862)">
      <path id="Path_12109" data-name="Path 12109" d="M30.225,49.852A11.213,11.213,0,1,0,19.012,61.065,11.226,11.226,0,0,0,30.225,49.852Zm-18.91,0a7.7,7.7,0,1,1,7.7,7.7,7.706,7.706,0,0,1-7.7-7.7Zm0,0" fill="#f7444e" fill-rule="evenodd"/>
      <path id="Path_12110" data-name="Path 12110" d="M85.011,14.7l-3.65-5.969,3.7-6.056A1.758,1.758,0,0,0,83.566,0H68.814a1.758,1.758,0,0,0-1.758,1.758V22.021H56.9a8.92,8.92,0,0,0-8.911,8.911V48.858A8.92,8.92,0,0,0,56.9,57.768H73.329a5.4,5.4,0,0,1,5.394,5.395V81.089a5.4,5.4,0,0,1-5.394,5.394H21.855L36.307,57.537c.013-.025.025-.051.036-.078A18.926,18.926,0,1,0,.088,49.852,18.79,18.79,0,0,0,1.68,57.459c.012.026.024.052.036.078l4.72,9.454a1.758,1.758,0,0,0,3.146-1.57l-4.7-9.414a15.41,15.41,0,1,1,29.538-6.154,15.29,15.29,0,0,1-1.279,6.154l-14.13,28.3L15.865,78a1.758,1.758,0,1,0-3.145,1.57l4.719,9.453c0,.005.007.01.01.016a1.837,1.837,0,0,0,.113.191l.018.024a1.72,1.72,0,0,0,.117.147l.041.045a1.736,1.736,0,0,0,.15.143l0,0a1.774,1.774,0,0,0,.176.126l.045.027a1.489,1.489,0,0,0,.167.089l.027.013a1.755,1.755,0,0,0,.209.076l.037.01a1.742,1.742,0,0,0,.18.038l.056.009a1.7,1.7,0,0,0,.223.016H73.329a8.92,8.92,0,0,0,8.91-8.911V63.163a8.92,8.92,0,0,0-8.91-8.91H56.9A5.4,5.4,0,0,1,51.5,48.858V30.932A5.4,5.4,0,0,1,56.9,25.537H67.056v4.322a1.758,1.758,0,0,0,3.516,0v-12.4h13A1.758,1.758,0,0,0,85.011,14.7Zm-14.439-.753V3.516H80.43L77.8,7.815a1.759,1.759,0,0,0,0,1.834l2.628,4.3Zm0,0" fill="#8d8d8d" fill-rule="evenodd"/>
      <path id="Path_12111" data-name="Path 12111" d="M11.151,70.74A1.758,1.758,0,1,0,12.909,72.5,1.762,1.762,0,0,0,11.151,70.74Zm0,0" fill="#8d8d8d" fill-rule="evenodd"/>
    </g>
  </g>
</svg>
