<svg xmlns="http://www.w3.org/2000/svg" xmlns:xlink="http://www.w3.org/1999/xlink" width="90" height="90" viewBox="0 0 90 90">
  <defs>
    <clipPath id="clip-path">
      <rect id="Rectangle_20" data-name="Rectangle 20" width="90" height="90" fill="#f7444e" stroke="#707070" stroke-width="1"/>
    </clipPath>
  </defs>
  <g id="Mask_Group_8" data-name="Mask Group 8" clip-path="url(#clip-path)">
    <g id="karaoke" transform="translate(0 0.207)">
      <path id="Path_17" data-name="Path 17" d="M10.005,11.844a1.448,1.448,0,0,0,1.05.435,1.5,1.5,0,0,0,.585-.1,1.6,1.6,0,0,0,.81-.81,1.506,1.506,0,0,0,.1-.585,1.45,1.45,0,0,0-.435-1.05,1.527,1.527,0,0,0-.48-.33,1.743,1.743,0,0,0-.87-.09c-.09.03-.195.06-.285.09a1.368,1.368,0,0,0-.256.135,2.091,2.091,0,0,0-.42.42c-.045.075-.09.165-.135.255a2.032,2.032,0,0,0-.09.285,1.853,1.853,0,0,0-.015.285,1.4,1.4,0,0,0,.435,1.065Zm0,0" transform="translate(4.785 4.645)" fill="#f7444e"/>
      <path id="Path_18" data-name="Path 18" d="M7.89,11.844a1.461,1.461,0,0,0-.33,1.635,1.308,1.308,0,0,0,.33.48,1.469,1.469,0,0,0,1.065.45,1.557,1.557,0,0,0,.57-.12,1.308,1.308,0,0,0,.48-.33,1.527,1.527,0,0,0,.33-.48A1.5,1.5,0,0,0,7.89,11.844Zm0,0" transform="translate(3.72 5.711)" fill="#f7444e"/>
      <path id="Path_19" data-name="Path 19" d="M7.885,13.972a1.471,1.471,0,0,0-2.115,0,1.252,1.252,0,0,0-.33.5A1.46,1.46,0,0,0,5.77,16.1a1.5,1.5,0,0,0,2.115,0,1.509,1.509,0,0,0,.435-1.065,1.475,1.475,0,0,0-.1-.57,1.437,1.437,0,0,0-.33-.5Zm0,0" transform="translate(2.66 6.762)" fill="#f7444e"/>
      <path id="Path_20" data-name="Path 20" d="M11.06,16.537a1.576,1.576,0,0,0,.585-.119,1.489,1.489,0,0,0,.48-.316,1.512,1.512,0,0,0,.435-1.065,1.489,1.489,0,0,0-.1-.57,1.447,1.447,0,0,0-.33-.5,1.472,1.472,0,0,0-2.115,0,1.435,1.435,0,0,0-.33.5,1.485,1.485,0,0,0,1.38,2.07Zm0,0" transform="translate(4.78 6.762)" fill="#f7444e"/>
      <path id="Path_21" data-name="Path 21" d="M10,16.082a1.55,1.55,0,0,0-2.114,0,1.252,1.252,0,0,0-.33.5,1.492,1.492,0,1,0,2.775,0,1.43,1.43,0,0,0-.33-.5Zm0,0" transform="translate(3.72 7.833)" fill="#f7444e"/>
      <path id="Path_22" data-name="Path 22" d="M13.19,10.159a1.474,1.474,0,0,0,.57-.105,1.516,1.516,0,0,0,.48-.33,1.312,1.312,0,0,0,.33-.48,1.551,1.551,0,0,0,.12-.57,1.474,1.474,0,0,0-.45-1.065,1.322,1.322,0,0,0-.48-.33,1.532,1.532,0,0,0-1.635.33,1.461,1.461,0,0,0-.435,1.065,1.485,1.485,0,0,0,1.5,1.485Zm0,0" transform="translate(5.845 3.586)" fill="#f7444e"/>
      <path id="Path_23" data-name="Path 23" d="M14.74,7.933a1.487,1.487,0,0,0,.57.1A1.512,1.512,0,0,0,16.375,7.6a1.5,1.5,0,0,0,0-2.115,1.542,1.542,0,0,0-1.635-.33,1.245,1.245,0,0,0-.5.33,1.53,1.53,0,0,0-.33.48,1.487,1.487,0,0,0-.1.57A1.458,1.458,0,0,0,14.245,7.6a1.433,1.433,0,0,0,.5.33Zm0,0" transform="translate(6.905 2.526)" fill="#f7444e"/>
      <path id="Path_24" data-name="Path 24" d="M7.885,5.476A1.525,1.525,0,0,0,6.25,5.161a1.349,1.349,0,0,0-.81.81,1.507,1.507,0,0,0-.12.57,1.551,1.551,0,0,0,.435,1.065,2.2,2.2,0,0,0,.5.33,1.489,1.489,0,0,0,.57.1,1.012,1.012,0,0,0,.3-.03,1.918,1.918,0,0,0,.27-.075,2.48,2.48,0,0,0,.27-.15,2.328,2.328,0,0,0,.225-.18,2.2,2.2,0,0,0,.18-.225,2.436,2.436,0,0,0,.15-.27,1.717,1.717,0,0,0,.075-.27,1,1,0,0,0,.03-.3,1.473,1.473,0,0,0-.1-.57,2.179,2.179,0,0,0-.33-.5Zm0,0" transform="translate(2.66 2.524)" fill="#f7444e"/>
      <path id="Path_25" data-name="Path 25" d="M10,3.358l-.225-.18a1.628,1.628,0,0,0-.54-.225,1.442,1.442,0,0,0-.87.09,1.467,1.467,0,0,0-.48.315,1.559,1.559,0,0,0-.45,1.065,2.075,2.075,0,0,0,.03.3l.09.27a2.323,2.323,0,0,0,.135.27,2.59,2.59,0,0,0,.2.225,1.467,1.467,0,0,0,.48.315,1.254,1.254,0,0,0,.57.12,1.977,1.977,0,0,0,.3-.03,1.628,1.628,0,0,0,.54-.225A2.422,2.422,0,0,0,10,5.488a1.185,1.185,0,0,0,.18-.225,2.491,2.491,0,0,0,.15-.27,1.815,1.815,0,0,0,.075-.27,1.012,1.012,0,0,0,.03-.3,1.487,1.487,0,0,0-.1-.57A1.8,1.8,0,0,0,10,3.358Zm0,0" transform="translate(3.72 1.462)" fill="#f7444e"/>
      <path id="Path_26" data-name="Path 26" d="M5.765,7.613a2.722,2.722,0,0,0-.226-.195,2.261,2.261,0,0,0-.27-.135L5,7.193a1.437,1.437,0,0,0-.87.089,1.5,1.5,0,0,0-.494.33A1.555,1.555,0,0,0,3.2,8.663a1.958,1.958,0,0,0,.03.3,1.632,1.632,0,0,0,.225.541l.18.225a1.768,1.768,0,0,0,.494.33,1.477,1.477,0,0,0,.571.105,1.034,1.034,0,0,0,.3-.03,1.8,1.8,0,0,0,.27-.075,2.255,2.255,0,0,0,.27-.15,1.163,1.163,0,0,0,.226-.179A2.39,2.39,0,0,0,5.945,9.5a1.618,1.618,0,0,0,.226-.541,2.162,2.162,0,0,0,.03-.3,1.257,1.257,0,0,0-.12-.571,1.5,1.5,0,0,0-.315-.48Zm0,0" transform="translate(1.6 3.581)" fill="#f7444e"/>
      <path id="Path_27" data-name="Path 27" d="M10,7.613a2.713,2.713,0,0,0-.225-.195,2.123,2.123,0,0,0-.255-.135c-.09-.029-.195-.059-.285-.089a1.448,1.448,0,0,0-.87.089,1.6,1.6,0,0,0-.81.81,1.5,1.5,0,0,0-.12.571,2.055,2.055,0,0,0,.03.3c.03.09.06.195.09.285a2.073,2.073,0,0,0,.135.256,2.7,2.7,0,0,0,.2.225,1.5,1.5,0,0,0,.48.33,1.474,1.474,0,0,0,.57.105,1.037,1.037,0,0,0,.3-.03,2.015,2.015,0,0,0,.285-.075,2.173,2.173,0,0,0,.255-.15,1.3,1.3,0,0,0,.405-.4,2.289,2.289,0,0,0,.15-.256,2.012,2.012,0,0,0,.075-.285,1.009,1.009,0,0,0,.03-.3,1.49,1.49,0,0,0-.1-.571,1.527,1.527,0,0,0-.33-.48Zm0,0" transform="translate(3.72 3.582)" fill="#f7444e"/>
      <path id="Path_28" data-name="Path 28" d="M9.675,7.128c.045.089.09.165.135.255a2.712,2.712,0,0,0,.195.225.861.861,0,0,0,.225.18,1.443,1.443,0,0,0,.256.15,2.116,2.116,0,0,0,.285.075.912.912,0,0,0,.285.03,1.487,1.487,0,0,0,1.065-.435,1.461,1.461,0,0,0,.435-1.065.913.913,0,0,0-.03-.285,1.583,1.583,0,0,0-.075-.285,1.79,1.79,0,0,0-.33-.5,1.475,1.475,0,0,0-.48-.315,1.454,1.454,0,0,0-.87-.09,1.025,1.025,0,0,0-.285.09.831.831,0,0,0-.256.135c-.075.06-.165.12-.225.18A1.512,1.512,0,0,0,9.57,6.543a2.042,2.042,0,0,0,.015.3c.03.09.06.2.09.286Zm0,0" transform="translate(4.785 2.522)" fill="#f7444e"/>
      <path id="Path_29" data-name="Path 29" d="M12.125,5.488a.861.861,0,0,0,.225.18,2.347,2.347,0,0,0,.255.15,2,2,0,0,0,.286.075,1,1,0,0,0,.3.03,1.451,1.451,0,0,0,1.05-.435,1.245,1.245,0,0,0,.33-.5,1.493,1.493,0,0,0,.12-.57,1.527,1.527,0,0,0-.45-1.065,1.478,1.478,0,0,0-.48-.315,1.429,1.429,0,0,0-.869-.09,1.625,1.625,0,0,0-.541.225c-.075.06-.165.12-.225.18a1.512,1.512,0,0,0-.435,1.065,1.487,1.487,0,0,0,.1.57,1.433,1.433,0,0,0,.33.5Zm0,0" transform="translate(5.845 1.461)" fill="#f7444e"/>
      <path id="Path_30" data-name="Path 30" d="M8.215,10.211a1.437,1.437,0,0,0-.15-.255.838.838,0,0,0-.18-.225,2.368,2.368,0,0,0-.225-.195c-.09-.045-.165-.09-.255-.135a2.134,2.134,0,0,0-.285-.09,1.578,1.578,0,0,0-1.365.42,2.841,2.841,0,0,0-.179.225.821.821,0,0,0-.135.255,1.076,1.076,0,0,0-.09.285,1.969,1.969,0,0,0-.03.285,1.515,1.515,0,0,0,.12.585,1.479,1.479,0,0,0,.315.48,1.785,1.785,0,0,0,.5.33,1.6,1.6,0,0,0,.285.075.912.912,0,0,0,.285.03,1.455,1.455,0,0,0,1.065-.435A1.481,1.481,0,0,0,8.32,10.78a.912.912,0,0,0-.03-.285,1.918,1.918,0,0,0-.075-.285Zm0,0" transform="translate(2.66 4.644)" fill="#f7444e"/>
      <path id="Path_31" data-name="Path 31" d="M6.095,12.329a2.173,2.173,0,0,0-.15-.255.821.821,0,0,0-.179-.225,1.437,1.437,0,0,0-.5-.33,1.53,1.53,0,0,0-1.635.33,2.745,2.745,0,0,0-.18.225,1.628,1.628,0,0,0-.225.54,1.959,1.959,0,0,0-.03.3,1.554,1.554,0,0,0,.435,1.05,1.46,1.46,0,0,0,1.635.33,1.252,1.252,0,0,0,.5-.33,1.453,1.453,0,0,0,.435-1.05,1.037,1.037,0,0,0-.03-.3,2.015,2.015,0,0,0-.075-.285Zm0,0" transform="translate(1.6 5.706)" fill="#f7444e"/>
      <path id="Path_32" data-name="Path 32" d="M13.19,14.413a1.507,1.507,0,0,0,.57-.12,1.6,1.6,0,0,0,.81-.81,1.5,1.5,0,0,0,.12-.57,1.472,1.472,0,0,0-.45-1.065,1.5,1.5,0,0,0-1.35-.405,1.9,1.9,0,0,0-.286.075c-.089.045-.165.09-.255.135a2.094,2.094,0,0,0-.42.42c-.045.09-.09.165-.135.255a2.116,2.116,0,0,0-.075.285,1.012,1.012,0,0,0-.03.3,1.45,1.45,0,0,0,.435,1.05,1.472,1.472,0,0,0,1.065.45Zm0,0" transform="translate(5.845 5.707)" fill="#f7444e"/>
      <path id="Path_33" data-name="Path 33" d="M14.245,11.843a1.423,1.423,0,0,0,.5.33,1.473,1.473,0,0,0,.57.1,1.506,1.506,0,0,0,1.065-.435,1.467,1.467,0,0,0,.315-.48,1.571,1.571,0,0,0,.12-.585,1.511,1.511,0,0,0-.435-1.05A1.541,1.541,0,0,0,14.74,9.4a1.423,1.423,0,0,0-.5.33,1.45,1.45,0,0,0-.435,1.05,1.392,1.392,0,0,0,.435,1.065Zm0,0" transform="translate(6.905 4.646)" fill="#f7444e"/>
      <path id="Path_34" data-name="Path 34" d="M16.86,10.053a1.477,1.477,0,0,0,.571.105A1.5,1.5,0,0,0,18.5,7.608a1.545,1.545,0,0,0-1.635-.33,1.252,1.252,0,0,0-.494.33,1.5,1.5,0,0,0,0,2.115,1.425,1.425,0,0,0,.494.33Zm0,0" transform="translate(7.965 3.586)" fill="#f7444e"/>
      <path id="Path_35" data-name="Path 35" d="M88.907,86.621l-6.872-3.4A7.455,7.455,0,0,1,77.862,76.5V75.309a10.526,10.526,0,0,0-5.295-9.125l-8.108-4.629a4.5,4.5,0,0,0-1.02-4.764L62.345,55.7a4.485,4.485,0,0,0-.149-5.832L36.869,21.849l2.174-2.174a1.5,1.5,0,0,0,0-2.122L34.8,13.311a1.5,1.5,0,0,0-1.061-.439,1.465,1.465,0,0,0-.809.271A16.5,16.5,0,1,0,13.42,32.655a1.47,1.47,0,0,0-.272.809,1.5,1.5,0,0,0,.439,1.061l4.242,4.241a1.5,1.5,0,0,0,2.123,0l2.172-2.173,28.025,25.33a4.452,4.452,0,0,0,5.831.15l1.095,1.095a4.454,4.454,0,0,0,5.391.717L71.08,68.8a7.513,7.513,0,0,1,3.782,6.505V76.5a10.432,10.432,0,0,0,5.85,9.409l6.873,3.4A1.524,1.524,0,0,0,89.722,88.3a1.5,1.5,0,0,0-.806-1.693ZM7.224,6.946a13.5,13.5,0,0,1,23.024,8.795l-.75.75a1.5,1.5,0,0,0-1.632-2.447,1.8,1.8,0,0,0-.5.33,1.518,1.518,0,0,0-.435,1.05,1.959,1.959,0,0,0,.03.3,1.076,1.076,0,0,0,.09.285.821.821,0,0,0,.135.255,1.474,1.474,0,0,0,.179.225,1.559,1.559,0,0,0,1.065.45,1.527,1.527,0,0,0,1.061-.45l-3.174,3.174a1.515,1.515,0,0,0,.434-1.05,1.634,1.634,0,0,0-.12-.584,1.49,1.49,0,0,0-.315-.48,1.543,1.543,0,0,0-1.635-.33,1.435,1.435,0,0,0-.494.33,1.492,1.492,0,0,0-.316.48,1.633,1.633,0,0,0-.119.584,1.513,1.513,0,0,0,.435,1.05,1.252,1.252,0,0,0,.494.33,1.5,1.5,0,0,0,.571.119,1.525,1.525,0,0,0,1.062-.45l-3.15,3.15a1.566,1.566,0,0,0,.405-1.017,1.5,1.5,0,0,0-.12-.57,1.41,1.41,0,0,0-.315-.5,2.176,2.176,0,0,0-.5-.33,1.5,1.5,0,0,0-1.14,0,1.514,1.514,0,0,0-.825.825,1.6,1.6,0,0,0,0,1.14,2.175,2.175,0,0,0,.33.494,1.387,1.387,0,0,0,.5.315,1.493,1.493,0,0,0,.57.12,1.562,1.562,0,0,0,1.017-.405l-3.149,3.15a1.527,1.527,0,0,0,.45-1.062,1.5,1.5,0,0,0-.12-.57,1.258,1.258,0,0,0-.33-.5,1.518,1.518,0,0,0-2.115,0,1.44,1.44,0,0,0-.33.5,1.487,1.487,0,0,0-.1.57,1.509,1.509,0,0,0,.435,1.065,1.475,1.475,0,0,0,.48.315,1.622,1.622,0,0,0,.585.12,1.508,1.508,0,0,0,1.05-.434L16.766,29.22a1.528,1.528,0,0,0,.45-1.061,1.554,1.554,0,0,0-.45-1.065,1.479,1.479,0,0,0-.225-.18.852.852,0,0,0-.255-.135A1.038,1.038,0,0,0,16,26.69a1.537,1.537,0,0,0-1.35.405,1.772,1.772,0,0,0-.33.5,1.5,1.5,0,0,0,2.44,1.638l-.75.75A13.5,13.5,0,0,1,7.224,6.946ZM18.892,35.585l-2.123-2.121L33.74,16.493l2.121,2.122-2.121,2.12ZM52.161,59.7,24.248,34.469l10.5-10.5L59.974,51.883a1.5,1.5,0,0,1-.053,2.067l-5.7,5.7a1.5,1.5,0,0,1-2.061.046Zm7.035,1.35-1.061-1.061,2.123-2.123,1.059,1.061A1.5,1.5,0,1,1,59.2,61.047Zm0,0" transform="translate(0.138 0)" fill="#f7444e"/>
      <path id="Path_36" data-name="Path 36" d="M69.376,4.007a1.5,1.5,0,0,0-1.35-.207l-18,6A1.5,1.5,0,0,0,49,11.223V24.057a5.936,5.936,0,0,0-3-.833,6,6,0,1,0,6,6V12.3l15-5V18.057a5.936,5.936,0,0,0-3-.833,6,6,0,1,0,6,6v-18a1.5,1.5,0,0,0-.624-1.217ZM46,32.223a3,3,0,1,1,3-3A3,3,0,0,1,46,32.223Zm18-6a3,3,0,1,1,3-3A3,3,0,0,1,64,26.223Zm0,0" transform="translate(20 1.862)" fill="#8d8d8d"/>
      <path id="Path_37" data-name="Path 37" d="M31.088,36.781l-21,6A1.5,1.5,0,0,0,9,44.223V60.057a5.937,5.937,0,0,0-3-.834,6,6,0,1,0,6,6V51.357l18-5.109v7.809a5.936,5.936,0,0,0-3-.834,6,6,0,1,0,6,6v-21a1.5,1.5,0,0,0-1.912-1.442ZM6,68.223a3,3,0,1,1,3-3A3,3,0,0,1,6,68.223Zm6-19.985V45.354l18-5.142v2.919ZM27,62.223a3,3,0,1,1,3-3A3,3,0,0,1,27,62.223Zm0,0" transform="translate(0 18.362)" fill="#8d8d8d"/>
    </g>
  </g>
</svg>
