<svg xmlns="http://www.w3.org/2000/svg" xmlns:xlink="http://www.w3.org/1999/xlink" width="20" height="20" viewBox="0 0 20 20">
  <defs>
    <clipPath id="clip-path">
      <rect id="Rectangle_787" data-name="Rectangle 787" width="20" height="20" transform="translate(142 361)" fill="#f3cb03" stroke="#707070" stroke-width="1"/>
    </clipPath>
  </defs>
  <g id="Mask_Group_67" data-name="Mask Group 67" transform="translate(-142 -361)" clip-path="url(#clip-path)">
    <g id="star" transform="translate(142 361)">
      <path id="Path_316" data-name="Path 316" d="M18.48,6.53,13.6,6.179a.261.261,0,0,1-.228-.167L11.515,1.488a1.635,1.635,0,0,0-3.024,0L6.629,6.02a.273.273,0,0,1-.228.167l-4.87.351a1.61,1.61,0,0,0-1.439,1.1A1.6,1.6,0,0,0,.576,9.407l3.77,3.114a.271.271,0,0,1,.09.269l-1.149,4.7a1.59,1.59,0,0,0,.257,1.39,1.626,1.626,0,0,0,1.284.64,1.548,1.548,0,0,0,.86-.261L9.808,16.7a.269.269,0,0,1,.281,0l4.161,2.555a1.558,1.558,0,0,0,.868.269,1.6,1.6,0,0,0,1.235-.6,1.652,1.652,0,0,0,.314-1.41l-1.153-4.715a.275.275,0,0,1,.09-.273L19.43,9.4a1.636,1.636,0,0,0-.95-2.869Zm.314,2.1-3.819,3.118a1.27,1.27,0,0,0-.428,1.284L15.7,17.738a.644.644,0,0,1-.122.558.6.6,0,0,1-.456.232.568.568,0,0,1-.326-.11l-4.177-2.568a1.268,1.268,0,0,0-.664-.187,1.25,1.25,0,0,0-.668.192L5.149,18.426a.605.605,0,0,1-.807-.147.579.579,0,0,1-.086-.534l1.153-4.72a1.273,1.273,0,0,0-.424-1.276L1.224,8.641A.633.633,0,0,1,1.6,7.532l4.878-.351A1.263,1.263,0,0,0,7.558,6.4L9.42,1.871a.633.633,0,0,1,1.174,0L12.457,6.4a1.263,1.263,0,0,0,1.08.783l4.887.355a.614.614,0,0,1,.55.428A.628.628,0,0,1,18.794,8.629Z" fill="#f3cb03"/>
    </g>
  </g>
</svg>
