<svg xmlns="http://www.w3.org/2000/svg" xmlns:xlink="http://www.w3.org/1999/xlink" width="90" height="90" viewBox="0 0 90 90">
  <defs>
    <clipPath id="clip-path">
      <rect id="Rectangle_19" data-name="Rectangle 19" width="90" height="90" fill="#f7444e" stroke="#707070" stroke-width="1"/>
    </clipPath>
  </defs>
  <g id="Mask_Group_9" data-name="Mask Group 9" clip-path="url(#clip-path)">
    <g id="museum" transform="translate(0.997)">
      <g id="Group_5" data-name="Group 5">
        <g id="Group_4" data-name="Group 4">
          <path id="Path_38" data-name="Path 38" d="M13.134,41.547H65.283A1.551,1.551,0,0,0,66.833,40V1.551A1.551,1.551,0,0,0,65.283,0H13.134a1.551,1.551,0,0,0-1.551,1.551V40A1.55,1.55,0,0,0,13.134,41.547Zm3.743-3.1,2.736-2.736H58.8l2.736,2.736Zm3.644-5.837V8.938H57.9V32.609Zm43.211,3.644L61,33.517V8.03l2.736-2.736ZM61.539,3.1,58.8,5.837H19.613L16.877,3.1H61.539ZM14.684,5.294,17.42,8.03V33.517l-2.736,2.736V5.294Z" transform="translate(4.794 0)" fill="#f7444e"/>
          <path id="Path_39" data-name="Path 39" d="M87.12,71.784H84.679V40.153c0-.006,0-.012,0-.018a5.737,5.737,0,1,0-7.871,0c0,.006,0,.012,0,.018v4.653a20.564,20.564,0,0,1-28.289.023V40.153c0-.006,0-.012,0-.018a5.737,5.737,0,1,0-7.871,0c0,.006,0,.012,0,.018v4.733a20.561,20.561,0,0,1-28.116.022V40.154c0-.006,0-.012,0-.018a5.737,5.737,0,1,0-7.871,0c0,.006,0,.012,0,.018v31.63H2.215a1.551,1.551,0,1,0,0,3.1h84.9a1.551,1.551,0,0,0,0-3.1Zm-77.692,0H7.757V41.7h1.67ZM8.593,38.6a2.636,2.636,0,1,1,2.636-2.636A2.639,2.639,0,0,1,8.593,38.6ZM40.645,71.784H12.529V48.943a23.689,23.689,0,0,0,28.116-.017V71.784Zm4.771,0h-1.67V41.7h1.67ZM44.581,38.6a2.636,2.636,0,1,1,2.636-2.636A2.639,2.639,0,0,1,44.581,38.6ZM76.806,71.784H48.518V48.878a23.684,23.684,0,0,0,28.289-.018Zm4.772,0h-1.67V41.7h1.67ZM80.743,38.6a2.636,2.636,0,1,1,2.636-2.636A2.639,2.639,0,0,1,80.743,38.6Z" transform="translate(-0.665 15.115)" fill="#8d8d8d"/>
        </g>
      </g>
    </g>
  </g>
</svg>
