<svg xmlns="http://www.w3.org/2000/svg" xmlns:xlink="http://www.w3.org/1999/xlink" width="90" height="90" viewBox="0 0 90 90">
  <defs>
    <clipPath id="clip-path">
      <rect id="Rectangle_3209" data-name="Rectangle 3209" width="90" height="90" transform="translate(1230 862)" fill="#8d8d8d" stroke="#707070" stroke-width="1"/>
    </clipPath>
  </defs>
  <g id="Mask_Group_149" data-name="Mask Group 149" transform="translate(-1230 -862)" clip-path="url(#clip-path)">
    <g id="event_1_" data-name="event (1)" transform="translate(1230 862)">
      <g id="Group_502" data-name="Group 502">
        <path id="Path_12106" data-name="Path 12106" d="M45,30a2.763,2.763,0,0,0-2.667,1.938L37.535,46.7a.167.167,0,0,1-.16.116H21.849A2.8,2.8,0,0,0,20.2,51.889l12.561,9.126a.167.167,0,0,1,.061.187l-4.8,14.766A2.8,2.8,0,0,0,32.34,79.1L44.9,69.978a.168.168,0,0,1,.2,0L57.66,79.1a2.763,2.763,0,0,0,3.3,0,2.763,2.763,0,0,0,1.019-3.135L57.178,61.2a.167.167,0,0,1,.061-.188L69.8,51.889a2.8,2.8,0,0,0-1.648-5.073H52.625a.167.167,0,0,1-.16-.116l-4.8-14.766h0A2.763,2.763,0,0,0,45,30Zm4.957,17.519a2.8,2.8,0,0,0,2.667,1.938H68.151a.168.168,0,0,1,.1.3L55.689,58.882a2.8,2.8,0,0,0-1.019,3.136l4.8,14.766a.168.168,0,0,1-.258.188L46.648,67.845a2.8,2.8,0,0,0-3.3,0L30.79,76.971a.168.168,0,0,1-.258-.188l4.8-14.766a2.8,2.8,0,0,0-1.019-3.136L21.75,49.756a.168.168,0,0,1,.1-.3H37.375a2.8,2.8,0,0,0,2.667-1.938l4.8-14.766a.168.168,0,0,1,.319,0Z" fill="#f7444e"/>
        <path id="Path_12107" data-name="Path 12107" d="M81.886,6.489h-3.53V5.048a5.048,5.048,0,0,0-10.1,0V6.489H59.483V5.048a5.047,5.047,0,1,0-10.095,0V6.489H40.612V5.048a5.048,5.048,0,1,0-10.1,0V6.489H21.74V5.048a5.048,5.048,0,0,0-10.1,0V6.489H8.114a4.875,4.875,0,0,0-4.869,4.87V29.892a1.318,1.318,0,0,0,2.637,0v-6.2H84.119V74.47a1.318,1.318,0,0,0,2.637,0V11.359A4.875,4.875,0,0,0,81.886,6.489ZM70.9,5.048a2.411,2.411,0,0,1,4.822,0V7.794s0,.009,0,.014,0,.009,0,.014v2.8a2.411,2.411,0,0,1-4.822,0Zm-18.872,0a2.411,2.411,0,1,1,4.822,0v5.574a2.411,2.411,0,1,1-4.822,0Zm-18.872,0a2.411,2.411,0,1,1,4.822,0v5.574a2.411,2.411,0,1,1-4.822,0ZM16.692,2.637A2.414,2.414,0,0,1,19.1,5.048v5.574a2.411,2.411,0,0,1-4.822,0v-2.8s0-.009,0-.014,0-.009,0-.014V5.048A2.414,2.414,0,0,1,16.692,2.637ZM5.881,21.058v-9.7A2.235,2.235,0,0,1,8.114,9.126h3.53v1.5a5.048,5.048,0,0,0,10.1,0v-1.5h8.777v1.5a5.048,5.048,0,1,0,10.1,0v-1.5h8.777v1.5a5.048,5.048,0,1,0,10.1,0v-1.5H68.26v1.5a5.048,5.048,0,0,0,10.1,0v-1.5h3.53a2.235,2.235,0,0,1,2.233,2.233v9.7H5.881Z" fill="#8d8d8d"/>
        <path id="Path_12108" data-name="Path 12108" d="M85.437,79.421a1.318,1.318,0,0,0-1.318,1.318V85.13a2.235,2.235,0,0,1-2.233,2.233H8.114A2.235,2.235,0,0,1,5.881,85.13V36.08a1.318,1.318,0,0,0-2.637,0V85.13A4.875,4.875,0,0,0,8.114,90H81.886a4.875,4.875,0,0,0,4.869-4.87V80.739A1.318,1.318,0,0,0,85.437,79.421Z" fill="#8d8d8d"/>
      </g>
    </g>
  </g>
</svg>
