<svg xmlns="http://www.w3.org/2000/svg" xmlns:xlink="http://www.w3.org/1999/xlink" width="20" height="20" viewBox="0 0 20 20">
  <defs>
    <clipPath id="clip-path">
      <rect id="Rectangle_11" data-name="Rectangle 11" width="20" height="20" fill="#858585" stroke="#707070" stroke-width="1"/>
    </clipPath>
  </defs>
  <g id="Mask_Group_5" data-name="Mask Group 5" clip-path="url(#clip-path)">
    <g id="calendar" transform="translate(0 0.172)">
      <path id="Path_4" data-name="Path 4" d="M14.793,1.552A1.727,1.727,0,0,0,13.1.172a.345.345,0,1,0,0,.69,1.034,1.034,0,0,1,0,2.069.345.345,0,1,0,0,.69,1.727,1.727,0,0,0,1.689-1.379H19.31v3.1H.69v-3.1H6.552a.345.345,0,1,0,0-.69H5.926A1.033,1.033,0,1,1,6.9,2.931a.345.345,0,1,0,0,.69A1.724,1.724,0,1,0,5.207,1.552H0V19.828H20V1.552ZM19.31,19.138H.69V6.034H19.31Z" transform="translate(0 -0.172)" fill="#858585"/>
      <path id="Path_5" data-name="Path 5" d="M4.239,10.416a.345.345,0,0,0,.488,0l1.48-1.48v7.788H5.172a.345.345,0,0,0,0,.69H7.931a.345.345,0,0,0,0-.69H6.9V8.1a.348.348,0,0,0-.027-.132.344.344,0,0,0-.45-.187.35.35,0,0,0-.112.074L4.239,9.929A.344.344,0,0,0,4.239,10.416Z" transform="translate(0 -0.172)" fill="#858585"/>
      <path id="Path_6" data-name="Path 6" d="M13.1,16.724A1.726,1.726,0,0,1,11.379,15a.345.345,0,1,0-.69,0,2.414,2.414,0,1,0,4.828,0V10.172a2.419,2.419,0,1,0-.69,1.686V15A1.726,1.726,0,0,1,13.1,16.724Zm0-4.828a1.724,1.724,0,1,1,1.724-1.724A1.726,1.726,0,0,1,13.1,11.9Z" transform="translate(0 -0.172)" fill="#858585"/>
      <path id="Path_7" data-name="Path 7" d="M8.966.862a1.034,1.034,0,1,1,0,2.069.345.345,0,1,0,0,.69,1.724,1.724,0,1,0,0-3.448.345.345,0,1,0,0,.69Z" transform="translate(0 -0.172)" fill="#858585"/>
      <path id="Path_8" data-name="Path 8" d="M11.034.862a1.034,1.034,0,1,1,0,2.069.345.345,0,1,0,0,.69,1.724,1.724,0,1,0,0-3.448.345.345,0,1,0,0,.69Z" transform="translate(0 -0.172)" fill="#858585"/>
    </g>
  </g>
</svg>
