<svg xmlns="http://www.w3.org/2000/svg" xmlns:xlink="http://www.w3.org/1999/xlink" width="90" height="90" viewBox="0 0 90 90">
  <defs>
    <clipPath id="clip-path">
      <rect id="Rectangle_16" data-name="Rectangle 16" width="90" height="90" fill="#f7444e" stroke="#707070" stroke-width="1"/>
    </clipPath>
  </defs>
  <g id="Mask_Group_100" data-name="Mask Group 100" clip-path="url(#clip-path)">
    <g id="piano" transform="translate(0.001 0)">
      <path id="Path_2236" data-name="Path 2236" d="M88.547,58.065H87.1V42.1a1.451,1.451,0,0,0-1.452-1.452H77.535L48.5,11.614l4.78-4.78a1.45,1.45,0,0,0,0-2.053L48.929.427a1.45,1.45,0,0,0-2.053,0L6.657,40.646h-2.3A1.451,1.451,0,0,0,2.9,42.1V58.065H1.452A1.451,1.451,0,0,0,0,59.516v8.709a1.452,1.452,0,0,0,1.452,1.452H3L4.36,88.651A1.451,1.451,0,0,0,5.807,90h5.806a1.454,1.454,0,0,0,1.449-1.349l1.354-18.973H75.583l1.355,18.973A1.451,1.451,0,0,0,78.386,90h5.806a1.454,1.454,0,0,0,1.449-1.349L87,69.677h1.552A1.451,1.451,0,0,0,90,68.226V59.516a1.451,1.451,0,0,0-1.452-1.452ZM73.43,40.646H58.064v-2.9a1.445,1.445,0,0,0-.425-1.026l-4.355-4.355a1.448,1.448,0,0,0-1.026-.425H33.387a1.451,1.451,0,0,0-1.452,1.452v7.258H19.472L46.451,13.667ZM34.838,46.452V34.84h8.709V46.452ZM46.451,34.84h5.205l3.5,3.5v8.108H46.451ZM47.9,3.506l2.3,2.3L15.367,40.646h-4.6ZM5.807,43.549H31.935V47.9a1.452,1.452,0,0,0,1.452,1.452H56.612A1.451,1.451,0,0,0,58.064,47.9V43.549H84.192V58.065h-2.9V53.71a1.451,1.451,0,0,0-1.452-1.452H10.161A1.451,1.451,0,0,0,8.71,53.71v4.355h-2.9Zm5.806,14.516v-2.9h5.806v2.9Zm8.709-2.9h2.9v2.9h-2.9Zm5.806,0h2.9v2.9h-2.9Zm5.806,0h2.9v2.9h-2.9Zm5.806,0h2.9v2.9h-2.9Zm5.806,0h2.9v2.9h-2.9Zm5.806,0h2.9v2.9h-2.9Zm5.806,0h2.9v2.9h-2.9Zm5.806,0h2.9v2.9h-2.9Zm5.806,0h2.9v2.9h-2.9Zm5.806,0h5.806v2.9H72.579ZM7.158,87.1l-.208-2.9h3.517l-.207,2.9Zm3.517-5.806H6.744L5.916,69.678h5.592ZM79.737,87.1l-.208-2.9h3.517l-.207,2.9Zm3.518-5.806H79.323l-.829-11.613h5.592ZM87.1,66.774H2.9V60.968H87.1Zm0,0" transform="translate(-0.001 0)" fill="#f7444e"/>
      <path id="Path_2237" data-name="Path 2237" d="M45.967,21.775a4.36,4.36,0,0,0,4.355-4.355V6.814l8.709-3.266v6.882a4.311,4.311,0,0,0-1.452-.267,4.355,4.355,0,1,0,4.355,4.355V1.453A1.45,1.45,0,0,0,59.973.095L48.361,4.449a1.452,1.452,0,0,0-.942,1.359v7.524a4.311,4.311,0,0,0-1.452-.266,4.355,4.355,0,0,0,0,8.709ZM57.58,15.969a1.452,1.452,0,1,1,1.452-1.452A1.453,1.453,0,0,1,57.58,15.969Zm-11.613,0a1.452,1.452,0,1,1-1.452,1.452A1.453,1.453,0,0,1,45.967,15.969Zm0,0" transform="translate(20.805 0)" fill="#8d8d8d"/>
      <path id="Path_2238" data-name="Path 2238" d="M6.291,21.776a4.36,4.36,0,0,0,4.355-4.355V4.958l4.78,4.78,2.053-2.053L10.22.427A1.451,1.451,0,0,0,7.742,1.454V13.333a4.311,4.311,0,0,0-1.452-.266,4.355,4.355,0,1,0,0,8.709Zm0-5.806a1.452,1.452,0,1,1-1.452,1.452A1.453,1.453,0,0,1,6.291,15.97Zm0,0" transform="translate(0.967 0)" fill="#8d8d8d"/>
      <path id="Path_2239" data-name="Path 2239" d="M.968,16.453H6.775v2.9H.968Zm0,0" transform="translate(0.483 8.226)" fill="#8d8d8d"/>
      <path id="Path_2240" data-name="Path 2240" d="M10.645,9.679h2.9v5.806h-2.9Zm0,0" transform="translate(5.322 4.839)" fill="#8d8d8d"/>
      <path id="Path_2241" data-name="Path 2241" d="M13.549,1.937h5.806v2.9H13.549Zm0,0" transform="translate(6.774 0.968)" fill="#8d8d8d"/>
      <path id="Path_2242" data-name="Path 2242" d="M39.677.969h2.9V6.775h-2.9Zm0,0" transform="translate(19.838 0.484)" fill="#8d8d8d"/>
      <path id="Path_2243" data-name="Path 2243" d="M51.29,14.517H57.1v2.9H51.29Zm0,0" transform="translate(25.644 7.259)" fill="#8d8d8d"/>
      <path id="Path_2244" data-name="Path 2244" d="M58.064,8.711h2.9v5.806h-2.9Zm0,0" transform="translate(29.031 4.355)" fill="#8d8d8d"/>
      <path id="Path_2245" data-name="Path 2245" d="M47.7,19.757,49.755,17.7l4.355,4.355-2.053,2.053Zm0,0" transform="translate(23.85 8.852)" fill="#8d8d8d"/>
    </g>
  </g>
</svg>
