<svg xmlns="http://www.w3.org/2000/svg" xmlns:xlink="http://www.w3.org/1999/xlink" width="12" height="12" viewBox="0 0 12 12">
  <defs>
    <clipPath id="clip-path">
      <rect id="Rectangle_3197" data-name="Rectangle 3197" width="12" height="12" transform="translate(1876 371)" fill="#3f65ae" stroke="#707070" stroke-width="1"/>
    </clipPath>
  </defs>
  <g id="Mask_Group_145" data-name="Mask Group 145" transform="translate(-1876 -371)" clip-path="url(#clip-path)">
    <g id="Headphone" transform="translate(1876 371)">
      <path id="Path_12102" data-name="Path 12102" d="M12.133,6.17V4.733a4.2,4.2,0,0,0-4.2-4.2h-2.8a4.2,4.2,0,0,0-4.2,4.2V6.17a.6.6,0,0,0-.4.563v1.6a.6.6,0,0,0,.6.6v1.4a1.8,1.8,0,0,0,1.8,1.8H5.17a.6.6,0,0,0,.563.4h1.6a.6.6,0,1,0,0-1.2h-1.6a.6.6,0,0,0-.563.4H2.933a1.4,1.4,0,0,1-1.4-1.4v-1.4h.22a1,1,0,0,0,.98.8h.8a.2.2,0,0,0,.2-.2v-4a.2.2,0,0,0-.2-.2h-.8a.99.99,0,0,0-.6.205V4.733a3,3,0,0,1,3-3h2.8a3,3,0,0,1,3,3v.805a.99.99,0,0,0-.6-.205h-.8a.2.2,0,0,0-.2.2v4a.2.2,0,0,0,.2.2h.8a1,1,0,0,0,.98-.8h.62a.6.6,0,0,0,.6-.6v-1.6a.6.6,0,0,0-.4-.563Zm-6.4,5.563h1.6a.2.2,0,0,1,0,.4h-1.6a.2.2,0,0,1,0-.4Zm-4.8-3.4v-1.6a.2.2,0,0,1,.2-.2h.6v2h-.6A.2.2,0,0,1,.933,8.333Zm1.8-2.6h.6v3.6h-.6a.6.6,0,0,1-.6-.6v-2.4a.6.6,0,0,1,.6-.6Zm5.2-4.4h-2.8a3.4,3.4,0,0,0-3.4,3.4v1.4h-.4v-1.4a3.8,3.8,0,0,1,3.8-3.8h2.8a3.8,3.8,0,0,1,3.8,3.8v1.4h-.4v-1.4A3.4,3.4,0,0,0,7.933,1.333Zm3,7.4a.6.6,0,0,1-.6.6h-.6v-3.6h.6a.6.6,0,0,1,.6.6Zm1.2-.4a.2.2,0,0,1-.2.2h-.6v-2h.6a.2.2,0,0,1,.2.2Z" transform="translate(-0.533 -0.533)" fill="#3f65ae"/>
    </g>
  </g>
</svg>
