<svg xmlns="http://www.w3.org/2000/svg" xmlns:xlink="http://www.w3.org/1999/xlink" width="82" height="38" viewBox="0 0 82 38">
  <defs>
    <clipPath id="clip-path">
      <rect id="Rectangle_3508" data-name="Rectangle 3508" width="82" height="38" transform="translate(172 170)" fill="#3f65ae" stroke="#707070" stroke-width="1"/>
    </clipPath>
  </defs>
  <g id="Mask_Group_236" data-name="Mask Group 236" transform="translate(-172 -170)" clip-path="url(#clip-path)">
    <g id="email" transform="translate(184.803 160.803)">
      <path id="Path_12269" data-name="Path 12269" d="M52.7,9.2H10.3a3.694,3.694,0,0,0-3.69,3.69v7.875H.826a.826.826,0,0,0,0,1.652h9.913a.826.826,0,1,0,0-1.652H8.261V12.887a2.023,2.023,0,0,1,.138-.731L24.44,28.2,8.4,44.239a2.023,2.023,0,0,1-.138-.731v-5.4a.826.826,0,1,0-1.652,0v5.4A3.694,3.694,0,0,0,10.3,47.2H52.7a3.694,3.694,0,0,0,3.69-3.69V12.887A3.694,3.694,0,0,0,52.7,9.2Zm-14.142,19L54.6,12.156a2.023,2.023,0,0,1,.138.731v30.62a2.023,2.023,0,0,1-.138.731ZM52.7,10.849a2.023,2.023,0,0,1,.731.138L35.006,29.417a4.962,4.962,0,0,1-7.01,0L9.567,10.987a2.023,2.023,0,0,1,.731-.138ZM10.3,45.545a2.023,2.023,0,0,1-.731-.138L25.609,29.365l1.22,1.22a6.616,6.616,0,0,0,9.346,0l1.22-1.22L53.436,45.407a2.023,2.023,0,0,1-.731.138Z" fill="#3f65ae"/>
      <path id="Path_12270" data-name="Path 12270" d="M7.435,24.067a.826.826,0,0,0-.826.826v2.478H.826a.826.826,0,1,0,0,1.652H14.043a.826.826,0,1,0,0-1.652H8.261V24.893A.826.826,0,0,0,7.435,24.067Z" fill="#3f65ae"/>
      <path id="Path_12271" data-name="Path 12271" d="M10.739,35.632a.826.826,0,0,0,0-1.652H8.261V31.5a.826.826,0,1,0-1.652,0V33.98H.826a.826.826,0,0,0,0,1.652Z" fill="#3f65ae"/>
    </g>
  </g>
</svg>
