<svg xmlns="http://www.w3.org/2000/svg" xmlns:xlink="http://www.w3.org/1999/xlink" width="60" height="60" viewBox="0 0 60 60">
  <defs>
    <clipPath id="clip-path">
      <rect id="Rectangle_20" data-name="Rectangle 20" width="60" height="60" transform="translate(0)" fill="#8d8d8d" stroke="#515151" stroke-width="1"/>
    </clipPath>
  </defs>
  <g id="Mask_Group_153" data-name="Mask Group 153" clip-path="url(#clip-path)">
    <g id="teamwork" transform="translate(0 1.926)">
      <g id="Group_643" data-name="Group 643">
        <path id="Path_12112" data-name="Path 12112" d="M58.828,55.73H56.449V52.671a7.759,7.759,0,0,0-5.2-7.317A8.279,8.279,0,1,0,40.14,33.095a10.2,10.2,0,0,0-20.281,0A8.279,8.279,0,1,0,8.754,45.354a7.759,7.759,0,0,0-5.2,7.317V55.73H1.172a1.172,1.172,0,1,0,0,2.344H24.7a1.172,1.172,0,1,0,0-2.344H19.34v-4.2a7.179,7.179,0,0,1,7.171-7.171h6.979a7.179,7.179,0,0,1,7.171,7.171v4.2H35.3a1.172,1.172,0,0,0,0,2.344H58.828a1.172,1.172,0,0,0,0-2.344ZM45.955,33.049a5.938,5.938,0,1,1-5.938,5.938A5.945,5.945,0,0,1,45.955,33.049ZM30,26.313a7.852,7.852,0,1,1-7.852,7.852A7.861,7.861,0,0,1,30,26.313ZM8.107,38.987a5.938,5.938,0,1,1,5.938,5.938A5.945,5.945,0,0,1,8.107,38.987ZM5.894,52.671a5.407,5.407,0,0,1,5.4-5.4h5.5a4.193,4.193,0,0,1,1.14.144A9.458,9.458,0,0,0,17,51.532v4.2H5.894Zm14.628-8.528a8.254,8.254,0,0,0,1.633-3.472,10.284,10.284,0,0,0,1.794,1.7A9.5,9.5,0,0,0,20.522,44.143ZM36.05,42.367a10.284,10.284,0,0,0,1.794-1.7,8.256,8.256,0,0,0,1.633,3.472A9.5,9.5,0,0,0,36.05,42.367ZM43,55.73v-4.2a9.457,9.457,0,0,0-.938-4.118,4.193,4.193,0,0,1,1.14-.144h5.5a5.407,5.407,0,0,1,5.4,5.4V55.73Z" transform="translate(0 -1.926)" fill="#8d8d8d"/>
        <path id="Path_12113" data-name="Path 12113" d="M30.629,55.928a1.171,1.171,0,1,0,.424,1.439A1.185,1.185,0,0,0,30.629,55.928Z" transform="translate(0 -1.926)" fill="#8d8d8d"/>
        <path id="Path_12114" data-name="Path 12114" d="M16.873,24.977a1.866,1.866,0,0,1-.729-.149l-2.7-1.144-2.7,1.144a1.86,1.86,0,0,1-2.579-1.874l.254-2.922L6.493,17.816a1.86,1.86,0,0,1,.985-3.032l2.858-.662,1.513-2.513a1.861,1.861,0,0,1,3.188,0l1.513,2.513,2.858.662a1.86,1.86,0,0,1,.985,3.032L18.47,20.031l.254,2.922a1.864,1.864,0,0,1-1.85,2.023ZM8.79,16.886l1.722,1.984a1.172,1.172,0,0,1,.283.87l-.227,2.617,2.419-1.025a1.171,1.171,0,0,1,.914,0l2.419,1.025-.227-2.617a1.172,1.172,0,0,1,.283-.87L18.1,16.886l-2.559-.593a1.172,1.172,0,0,1-.74-.537L13.443,13.5l-1.354,2.251a1.172,1.172,0,0,1-.74.537Z" transform="translate(0 -1.926)" fill="#f7444e"/>
        <path id="Path_12115" data-name="Path 12115" d="M49.987,24.977a1.867,1.867,0,0,1-.729-.149l-2.7-1.144-2.7,1.144a1.86,1.86,0,0,1-2.579-1.874l.254-2.922-1.923-2.215a1.86,1.86,0,0,1,.986-3.032l2.858-.662,1.513-2.513a1.861,1.861,0,0,1,3.188,0l1.513,2.513,2.858.662a1.86,1.86,0,0,1,.985,3.032l-1.923,2.215.254,2.922a1.864,1.864,0,0,1-1.85,2.023ZM41.9,16.886l1.722,1.984a1.172,1.172,0,0,1,.283.87l-.227,2.617L46.1,21.331a1.172,1.172,0,0,1,.914,0l2.419,1.025-.227-2.617a1.172,1.172,0,0,1,.283-.87l1.722-1.984-2.559-.593a1.172,1.172,0,0,1-.74-.537l-1.355-2.251L45.2,15.756a1.172,1.172,0,0,1-.74.537Z" transform="translate(0 -1.926)" fill="#f7444e"/>
        <path id="Path_12116" data-name="Path 12116" d="M25.759,19.014a2.027,2.027,0,0,1-2.012-2.2l.324-3.73-2.454-2.827a2.023,2.023,0,0,1,1.071-3.3l3.648-.845,1.931-3.208A2.008,2.008,0,0,1,30,1.926h0a2.007,2.007,0,0,1,1.733.98l1.931,3.208,3.648.845a2.023,2.023,0,0,1,1.071,3.3l-2.454,2.827.324,3.73a2.023,2.023,0,0,1-2.805,2.038L30,17.391l-3.448,1.461a2.03,2.03,0,0,1-.793.162ZM30,14.947a1.171,1.171,0,0,1,.457.093l3.414,1.446-.321-3.694a1.172,1.172,0,0,1,.283-.87l2.431-2.8-3.612-.837a1.172,1.172,0,0,1-.74-.537L30,4.571,28.088,7.748a1.172,1.172,0,0,1-.74.537l-3.612.837,2.431,2.8a1.172,1.172,0,0,1,.283.87l-.321,3.694,3.414-1.446A1.174,1.174,0,0,1,30,14.947Z" transform="translate(0 -1.926)" fill="#f7444e"/>
      </g>
    </g>
  </g>
</svg>
