<svg xmlns="http://www.w3.org/2000/svg" xmlns:xlink="http://www.w3.org/1999/xlink" width="93" height="93" viewBox="0 0 93 93">
  <defs>
    <clipPath id="clip-path">
      <rect id="Rectangle_770" data-name="Rectangle 770" width="93" height="93" transform="translate(-0.331)" fill="#4b4b4b" stroke="#707070" stroke-width="1"/>
    </clipPath>
  </defs>
  <g id="Mask_Group_62" data-name="Mask Group 62" transform="translate(0.331)" clip-path="url(#clip-path)">
    <g id="resume">
      <g id="Group_122" data-name="Group 122">
        <g id="Group_121" data-name="Group 121">
          <path id="Path_259" data-name="Path 259" d="M75,27a2.146,2.146,0,0,0,2-2V5a4.719,4.719,0,0,0-5-5H5A4.719,4.719,0,0,0,0,5V88a4.719,4.719,0,0,0,5,5H72a4.719,4.719,0,0,0,5-5V74a2,2,0,0,0-4,0V88c0,1,0,1-1,1H5c-1,0-1,0-1-1V5C4,4,4,4,5,4H72c1,0,1,0,1,1V25A2.146,2.146,0,0,0,75,27Z" transform="translate(0)" fill="#4b4b4b"/>
        </g>
      </g>
      <g id="Group_124" data-name="Group 124" transform="translate(22 10)">
        <g id="Group_123" data-name="Group 123">
          <path id="Path_260" data-name="Path 260" d="M39,10A17.228,17.228,0,0,0,22,27a16.129,16.129,0,0,0,5,12c.06.065-.07-.056,0,0,2.974,2.721,7.662,4,12,4a15.665,15.665,0,0,0,11-4c.07-.056-.06.064,0,0a16.128,16.128,0,0,0,5-12C55,17.786,48.214,10,39,10Zm0,30a13.608,13.608,0,0,1-8-3,9.567,9.567,0,0,1,8-5c3.324,0,5.4,2.169,7,5C43.8,38.67,41.966,40,39,40ZM36,26V25a3.073,3.073,0,0,1,3-3c1.6,0,2,1.4,2,3v1c0,1.6-.4,3-2,3A3.073,3.073,0,0,1,36,26Zm13,8a10.63,10.63,0,0,0-5-4,6.285,6.285,0,0,0,1-4V25c0-3.606-2.394-7-6-7a7.362,7.362,0,0,0-7,7v1a6.285,6.285,0,0,0,1,4,10.63,10.63,0,0,0-5,4c-1.6-2.171-3-4.1-3-7,0-7.211,6.789-14,14-14s13,6.789,13,14C52,29.9,50.6,31.829,49,34Z" transform="translate(-22 -10)" fill="#4b4b4b"/>
        </g>
      </g>
      <g id="Group_126" data-name="Group 126" transform="translate(37 80)">
        <g id="Group_125" data-name="Group 125">
          <path id="Path_261" data-name="Path 261" d="M48,80H39c-1,0-2,0-2,1a2.146,2.146,0,0,0,2,2h9a2.146,2.146,0,0,0,2-2C50,80,49,80,48,80Z" transform="translate(-37 -80)" fill="#4b4b4b"/>
        </g>
      </g>
      <g id="Group_128" data-name="Group 128" transform="translate(21 69)">
        <g id="Group_127" data-name="Group 127">
          <path id="Path_262" data-name="Path 262" d="M48,69H23a2,2,0,0,0,0,4H48a2,2,0,0,0,0-4Z" transform="translate(-21 -69)" fill="#4b4b4b"/>
        </g>
      </g>
      <g id="Group_130" data-name="Group 130" transform="translate(21 59)">
        <g id="Group_129" data-name="Group 129">
          <path id="Path_263" data-name="Path 263" d="M48,59H23a2,2,0,0,0,0,4H48a2,2,0,0,0,0-4Z" transform="translate(-21 -59)" fill="#4b4b4b"/>
        </g>
      </g>
      <g id="Group_132" data-name="Group 132" transform="translate(12.85 49)">
        <g id="Group_131" data-name="Group 131">
          <path id="Path_264" data-name="Path 264" d="M16,50c-.338-.338-.52-1-1-1a4.636,4.636,0,0,0-2,1c-.338.338,0,.522,0,1s-.338.662,0,1a4.647,4.647,0,0,0,2,1c.48,0,.661-.662,1-1s1-.522,1-1S16.338,50.338,16,50Z" transform="translate(-12.85 -49)" fill="#4b4b4b"/>
        </g>
      </g>
      <g id="Group_134" data-name="Group 134" transform="translate(12.85 59)">
        <g id="Group_133" data-name="Group 133">
          <path id="Path_265" data-name="Path 265" d="M16,60c-.339-.338-.52-1-1-1a4.647,4.647,0,0,0-2,1c-.338.338,0,.522,0,1s-.338.662,0,1a4.647,4.647,0,0,0,2,1c.48,0,.661-.662,1-1s1-.522,1-1S16.338,60.338,16,60Z" transform="translate(-12.85 -59)" fill="#4b4b4b"/>
        </g>
      </g>
      <g id="Group_136" data-name="Group 136" transform="translate(12.85 69)">
        <g id="Group_135" data-name="Group 135">
          <path id="Path_266" data-name="Path 266" d="M16,70c-.339-.338-.52-1-1-1a4.647,4.647,0,0,0-2,1c-.338.338,0,.522,0,1s-.338.662,0,1a4.636,4.636,0,0,0,2,1c.48,0,.662-.662,1-1s1-.522,1-1S16.338,70.338,16,70Z" transform="translate(-12.85 -69)" fill="#4b4b4b"/>
        </g>
      </g>
      <g id="Group_138" data-name="Group 138" transform="translate(21 49)">
        <g id="Group_137" data-name="Group 137">
          <path id="Path_267" data-name="Path 267" d="M48,49H23a2,2,0,0,0,0,4H48a2,2,0,0,0,0-4Z" transform="translate(-21 -49)" fill="#4b4b4b"/>
        </g>
      </g>
      <g id="Group_140" data-name="Group 140" transform="translate(53.991 22.789)">
        <g id="Group_139" data-name="Group 139">
          <path id="Path_268" data-name="Path 268" d="M89,24a8.2,8.2,0,0,0-6-1,5.636,5.636,0,0,0-4,3L56,66c-.125.217.028.751,0,1L54,81a2.259,2.259,0,0,0,1,2c.282.163.687,0,1,0,.38,0,.681.235,1,0l12-9c.2-.149-.125.217,0,0L92,34C94.1,30.357,92.643,26.1,89,24ZM58,77l1-7,5,3Zm9-7-7-4L78,35l7,4ZM89,32l-2,3-7-4,2-3c.534-.924.969-1.724,2-2s2.076.466,3,1,1.724.969,2,2A3.853,3.853,0,0,1,89,32Z" transform="translate(-53.991 -22.789)" fill="#4b4b4b"/>
        </g>
      </g>
    </g>
  </g>
</svg>
