<svg xmlns="http://www.w3.org/2000/svg" xmlns:xlink="http://www.w3.org/1999/xlink" width="93" height="93" viewBox="0 0 93 93">
  <defs>
    <clipPath id="clip-path">
      <rect id="Rectangle_772" data-name="Rectangle 772" width="93" height="93" transform="translate(-0.331)" fill="#4b4b4b" stroke="#707070" stroke-width="1"/>
    </clipPath>
  </defs>
  <g id="Mask_Group_63" data-name="Mask Group 63" transform="translate(0.331)" clip-path="url(#clip-path)">
    <g id="scores" transform="translate(8)">
      <g id="Group_202" data-name="Group 202" transform="translate(73 43.85)">
        <g id="Group_201" data-name="Group 201">
          <path id="Path_299" data-name="Path 299" d="M84,44c-.338-.338-.522,0-1,0s-.662-.338-1,0a4.648,4.648,0,0,0-1,2c0,.48.662.66,1,1s.522,0,1,0,.662.338,1,0,1-.52,1-1A4.648,4.648,0,0,0,84,44Z" transform="translate(-81 -43.85)" fill="#4b4b4b"/>
        </g>
      </g>
      <g id="Group_204" data-name="Group 204">
        <g id="Group_203" data-name="Group 203">
          <path id="Path_300" data-name="Path 300" d="M83,40c1,0,2,0,2-1V5a4.719,4.719,0,0,0-5-5H28a4.6,4.6,0,0,0-2,1L9,18a4.6,4.6,0,0,0-1,2V88a4.719,4.719,0,0,0,5,5H80a4.719,4.719,0,0,0,5-5V54a2,2,0,0,0-4,0V88c0,1,0,1-1,1H13c-1,0-1,0-1-1V21H24a4.719,4.719,0,0,0,5-5V4H80c1,0,1,0,1,1V39C81,40,82,40,83,40ZM26,16a2.148,2.148,0,0,1-2,2H14L26,6Z" transform="translate(-8)" fill="#4b4b4b"/>
        </g>
      </g>
      <g id="Group_206" data-name="Group 206" transform="translate(19.468 27.468)">
        <g id="Group_205" data-name="Group 205">
          <path id="Path_301" data-name="Path 301" d="M31,28a2.381,2.381,0,0,0-3,0h0a2.381,2.381,0,0,0,0,3c.354.35.539,0,1,0s1.645.36,2,0h0A2.381,2.381,0,0,0,31,28Z" transform="translate(-27.468 -27.468)" fill="#4b4b4b"/>
        </g>
      </g>
      <g id="Group_208" data-name="Group 208" transform="translate(12.769 20.372)">
        <g id="Group_207" data-name="Group 207">
          <path id="Path_302" data-name="Path 302" d="M65,28a26.509,26.509,0,0,0-32-4c-.865.509-.509,1.135,0,2s1.135,1.509,2,1c8.835-5.2,19.741-3.259,27,4a21.531,21.531,0,0,1,0,31,22.946,22.946,0,0,1-16,7c-6.016,0-10.746-2.746-15-7-7.083-7.083-8.866-17.259-4-26a2.617,2.617,0,0,0-1-3c-.877-.488-1.512.124-2,1a25.8,25.8,0,0,0-3,16,25.241,25.241,0,0,0,7,15c4.94,4.94,11.013,8,18,8a27.5,27.5,0,0,0,19-8c4.94-4.94,8-11.013,8-18A27.5,27.5,0,0,0,65,28Z" transform="translate(-20.769 -20.372)" fill="#4b4b4b"/>
        </g>
      </g>
      <g id="Group_210" data-name="Group 210" transform="translate(23 32)">
        <g id="Group_209" data-name="Group 209">
          <path id="Path_303" data-name="Path 303" d="M50,57l-1-5c.913-.1,1-1.061,1-2a2.146,2.146,0,0,0-2-2H47L43,33c-.238-.756-1.207-1-2-1s-1.762.244-2,1L34,48H33a2.146,2.146,0,0,0-2,2,2.38,2.38,0,0,0,2,2l-1,5a1.581,1.581,0,0,0,3,1l2-6h8l2,6c.244.775.228,1,1,1a5.8,5.8,0,0,0,1,0A1.441,1.441,0,0,0,50,57ZM38,48l3-8,3,8Z" transform="translate(-31 -32)" fill="#4b4b4b"/>
        </g>
      </g>
      <g id="Group_212" data-name="Group 212" transform="translate(42 32)">
        <g id="Group_211" data-name="Group 211">
          <path id="Path_304" data-name="Path 304" d="M59,36H57V34c0-1,0-2-1-2a2.146,2.146,0,0,0-2,2v2H52a2.146,2.146,0,0,0-2,2c0,1,1,1,2,1h2v2a2.146,2.146,0,0,0,2,2c1,0,1-1,1-2V39h2c1,0,2,0,2-1A2.146,2.146,0,0,0,59,36Z" transform="translate(-50 -32)" fill="#4b4b4b"/>
        </g>
      </g>
    </g>
  </g>
</svg>
