<svg xmlns="http://www.w3.org/2000/svg" xmlns:xlink="http://www.w3.org/1999/xlink" width="93" height="93" viewBox="0 0 93 93">
  <defs>
    <clipPath id="clip-path">
      <rect id="Rectangle_776" data-name="Rectangle 776" width="93" height="93" transform="translate(0.167)" fill="#4b4b4b" stroke="#707070" stroke-width="1"/>
    </clipPath>
  </defs>
  <g id="Mask_Group_65" data-name="Mask Group 65" transform="translate(-0.167)" clip-path="url(#clip-path)">
    <g id="clipboard" transform="translate(10)">
      <path id="Path_311" data-name="Path 311" d="M67.5,3.812h-7c-.752,0-1,1.248-1,2s.248,1,1,1h1v75h-51v-75h6v3a3.808,3.808,0,0,0,4,4h6c.644,3.555,4.264,7,8,7h3c3.736,0,7.356-3.445,8-7h6a3.808,3.808,0,0,0,4-4v-6a3.808,3.808,0,0,0-4-4h-31a3.808,3.808,0,0,0-4,4H4.5c-3,0-5,3.005-5,6v54c0,.753.248,2,1,2s1-1.247,1-2v-54a3.238,3.238,0,0,1,3-3h3v77c0,.753,1.248,1,2,1h53c.753,0,2-.247,2-1v-77h3a3.237,3.237,0,0,1,3,3v78c0,1.494-1.506,2-3,2H4.5c-1.493,0-3-.506-3-2v-17c0-.752-.248-1-1-1s-1,.248-1,1v17a4.728,4.728,0,0,0,5,5h63a4.728,4.728,0,0,0,5-5v-78C72.5,6.817,70.5,3.812,67.5,3.812Zm-49,0c0-.87,1.13-1,2-1h31c.87,0,2,.13,2,1v6a2.4,2.4,0,0,1-2,2h-8c-.753,0-1,.248-1,1a5.081,5.081,0,0,1-5,5h-3a5.081,5.081,0,0,1-5-5c0-.752-.248-1-1-1h-8a2.4,2.4,0,0,1-2-2Zm0,0" transform="translate(0.496 0.188)" fill="#4b4b4b"/>
      <path id="Path_312" data-name="Path 312" d="M53.5,36.812h-7l-5-12c-.457-1.25-2.671-1.3-3,0l-4,19-5-14c-.382-1.11-2.425-1.025-3,0l-4,7h-4c-.753,0-1,1.247-1,2s.247,1,1,1h5c.493,0,.758-.57,1-1l3-5,5,16c.439,1.277,2.668.309,3-1l5-19,3,9c.2.537,1.428,1,2,1h8c.753,0,1-.247,1-1S54.256,36.812,53.5,36.812Zm0,0" transform="translate(0.496 0.188)" fill="#4b4b4b"/>
      <path id="Path_313" data-name="Path 313" d="M53.5,59.812h-35c-.752,0-1,.247-1,1s.248,1,1,1h35c.752,0,1-.248,1-1S54.256,59.812,53.5,59.812Zm0,0" transform="translate(0.496 0.188)" fill="#4b4b4b"/>
      <path id="Path_314" data-name="Path 314" d="M53.5,71.812h-35c-.752,0-1,.248-1,1s.248,1,1,1h35c.752,0,1-.248,1-1S54.256,71.812,53.5,71.812Zm0,0" transform="translate(0.496 0.188)" fill="#4b4b4b"/>
    </g>
  </g>
</svg>
